<?xml version="1.0" encoding="utf-8"?>
<!-- Generator: Adobe Illustrator 16.0.0, SVG Export Plug-In . SVG Version: 6.00 Build 0)  -->
<!DOCTYPE svg PUBLIC "-//W3C//DTD SVG 1.1//EN" "http://www.w3.org/Graphics/SVG/1.1/DTD/svg11.dtd">
<svg version="1.1" id="Layer_1" xmlns="http://www.w3.org/2000/svg" xmlns:xlink="http://www.w3.org/1999/xlink" x="0px" y="0px"
	 width="653px" height="159px" viewBox="0 0 653 159" enable-background="new 0 0 653 159" xml:space="preserve">
<g>
	<rect x="16" y="10" fill="none" width="620.666" height="40"/>
	<path fill="#D1D3D4" d="M59.95,15.808H49.726v31.776H45.31V15.808H35.085v-3.744H59.95V15.808z"/>
	<path fill="#D1D3D4" d="M81.794,47.583h-4.176v-35.52h4.176V47.583z"/>
	<path fill="#D1D3D4" d="M141.501,47.583h-4.654l-3.886-26.808l-11.305,27.779l-1.219-0.015L109.38,20.652l-4.231,26.938
		l-4.399-0.006l7.056-36.48h1.488l12.144,29.521l11.904-29.521h1.488L141.501,47.583z"/>
	<path fill="#D1D3D4" d="M180.073,47.583h-19.296v-35.52h19.296v3.84h-15.024v10.512h15.024v3.648h-15.024v13.68h15.024V47.583z"/>
	<path fill="#D1D3D4" d="M269.881,12.063l-13.015,36.624l-1.297,0.002l-8.909-28.051l-8.767,28.057l-1.25-0.009l-13.658-36.624h4.8
		l9.312,28.32l9.072-28.704h1.056l9.169,28.702l8.927-28.318H269.881z"/>
	<path fill="#D1D3D4" d="M313.638,47.583l-4.984-0.003l-4.55-11.037h-14.139l-4.563,11.035l-4.596,0.005l15.601-36.48h1.152
		L313.638,47.583z M302.738,33.328l-5.955-15.294l-5.757,15.294H302.738z"/>
	<path fill="#D1D3D4" d="M350.396,18.255l-3.792,1.776c-0.353-1.472-1.2-2.664-2.544-3.576c-1.344-0.912-2.816-1.368-4.416-1.368
		c-1.185,0-2.225,0.232-3.12,0.696c-0.896,0.464-1.632,1.224-2.208,2.28c-0.384,0.864-0.576,1.745-0.576,2.64
		c0,2.144,1.008,3.76,3.024,4.848l9.12,3.36c1.664,0.925,2.936,2.179,3.816,3.759c0.88,1.581,1.32,3.264,1.32,5.051
		c0,1.532-0.312,3.001-0.936,4.405c-0.624,1.405-1.56,2.65-2.808,3.735c-2.24,1.564-4.752,2.346-7.536,2.346
		c-2.496,0-4.784-0.624-6.864-1.872c-1.121-0.832-1.977-1.768-2.568-2.808c-0.592-1.04-1.128-2.392-1.608-4.056l3.888-1.968
		c0,2.016,0.72,3.696,2.16,5.04c1.44,1.344,3.136,2.016,5.088,2.016c0.768,0,1.528-0.119,2.28-0.358
		c0.751-0.239,1.488-0.629,2.208-1.172c0.72-0.542,1.296-1.275,1.728-2.2c0.432-0.924,0.648-1.896,0.648-2.917
		c0-1.53-0.344-2.661-1.032-3.395c-0.688-0.733-1.232-1.228-1.632-1.482c-0.4-0.255-1.208-0.653-2.424-1.196l-6.143-2.161
		c-1.824-0.864-3.296-2.04-4.417-3.527c-1.121-1.488-1.68-3.176-1.68-5.064c0-0.48,0.12-1.352,0.36-2.616
		c0.24-1.264,1-2.6,2.28-4.007c1.28-1.408,2.68-2.263,4.2-2.568c1.52-0.304,2.872-0.456,4.056-0.456c0.511,0,0.912,0.017,1.2,0.048
		c0.288,0.032,1.032,0.168,2.232,0.408c1.2,0.24,2.479,0.936,3.84,2.088C348.9,15.135,349.852,16.56,350.396,18.255z"/>
	<path fill="#D1D3D4" d="M391.868,15.808h-10.224v31.776h-4.416V15.808h-10.224v-3.744h24.864V15.808z"/>
	<path fill="#D1D3D4" d="M428.741,47.583h-19.296v-35.52h19.296v3.84h-15.024v10.512h15.024v3.648h-15.024v13.68h15.024V47.583z"/>
	<path fill="#D1D3D4" d="M469.454,45.616c-1.248,0.608-2.496,1.088-3.744,1.44c-1.248,0.353-2.479,0.528-3.695,0.528h-13.44v-35.52
		h15.12c4.512,0.449,8.08,2.44,10.704,5.976c2.623,3.536,3.936,7.577,3.936,12.12c0,3.36-0.736,6.416-2.208,9.168
		C474.654,42.08,472.431,44.175,469.454,45.616z M473.63,27.52c-0.256-2.784-1.336-5.248-3.239-7.392
		c-1.904-2.144-4.232-3.52-6.984-4.128H452.75v27.744h9.168c3.616,0,6.496-1.44,8.641-4.32c2.144-2.88,3.216-6.16,3.216-9.84
		C473.774,28.88,473.727,28.191,473.63,27.52z"/>
	<path fill="#D1D3D4" d="M562.669,29.583c0,5.249-1.848,9.72-5.544,13.416c-3.695,3.696-8.168,5.544-13.416,5.544
		c-5.312,0-9.88-1.784-13.703-5.352c-3.824-3.568-5.736-7.944-5.736-13.128c0-5.248,1.848-9.72,5.544-13.416
		s8.167-5.544,13.416-5.544c5.312,0,9.88,1.784,13.704,5.352C560.757,20.024,562.669,24.399,562.669,29.583z M558.253,29.487
		c0-4.063-1.472-7.503-4.415-10.32c-2.945-2.815-6.48-4.224-10.608-4.224c-4.064,0-7.505,1.472-10.32,4.416
		c-2.816,2.945-4.224,6.48-4.224,10.608c0,4.064,1.464,7.497,4.392,10.296c2.929,2.8,6.472,4.2,10.632,4.2
		c4.063,0,7.504-1.471,10.32-4.416C556.845,37.104,558.253,33.584,558.253,29.487z"/>
	<path fill="#D1D3D4" d="M613.549,48.352h-0.864l-25.92-28.512v27.744h-3.984V11.2l1.001,0.006l25.688,28.542V12.063h4.08V48.352z"
		/>
</g>
<g>
	<rect x="16" y="90" fill="none" width="620.666" height="60"/>
	<path fill="#F1F2F2" d="M74.339,143.423c-1.872,0.913-3.744,1.632-5.616,2.16c-1.872,0.529-3.72,0.792-5.544,0.792h-20.16v-53.28
		h22.68c6.768,0.672,12.12,3.661,16.056,8.964c3.935,5.304,5.904,11.365,5.904,18.18c0,5.04-1.104,9.625-3.312,13.752
		C82.138,138.12,78.803,141.264,74.339,143.423z M80.603,116.279c-0.385-4.176-2.004-7.872-4.86-11.088
		c-2.856-3.215-6.348-5.28-10.476-6.192H49.283v41.616h13.752c5.424,0,9.744-2.16,12.96-6.48c3.215-4.32,4.824-9.239,4.824-14.76
		C80.819,118.32,80.747,117.288,80.603,116.279z"/>
	<path fill="#F1F2F2" d="M174.497,146.375h-28.944v-53.28h28.944v5.76h-22.536v15.768h22.536v5.472h-22.536v20.52h22.536V146.375z"
		/>
	<path fill="#F1F2F2" d="M260.385,102.383l-5.688,2.664c-0.529-2.207-1.8-3.996-3.816-5.364c-2.016-1.368-4.225-2.052-6.624-2.052
		c-1.776,0-3.337,0.349-4.68,1.044c-1.344,0.697-2.448,1.836-3.312,3.42c-0.576,1.296-0.864,2.617-0.864,3.96
		c0,3.216,1.512,5.641,4.536,7.272l13.68,5.04c2.495,1.388,4.403,3.268,5.724,5.638c1.319,2.371,1.98,4.896,1.98,7.577
		c0,2.298-0.468,4.501-1.404,6.607c-0.936,2.107-2.34,3.975-4.212,5.603c-3.36,2.347-7.128,3.519-11.304,3.519
		c-3.744,0-7.176-0.936-10.296-2.808c-1.681-1.248-2.964-2.651-3.852-4.212c-0.889-1.559-1.692-3.587-2.412-6.084l5.832-2.952
		c0,3.024,1.08,5.544,3.24,7.56c2.16,2.016,4.704,3.024,7.632,3.024c1.152,0,2.292-0.179,3.42-0.538
		c1.127-0.358,2.232-0.944,3.312-1.757c1.08-0.812,1.944-1.913,2.592-3.3c0.648-1.386,0.972-2.845,0.972-4.376
		c0-2.295-0.517-3.992-1.548-5.092c-1.033-1.1-1.849-1.842-2.448-2.224c-0.601-0.382-1.813-0.98-3.636-1.793l-9.215-3.242
		c-2.736-1.296-4.944-3.059-6.625-5.291c-1.681-2.232-2.52-4.764-2.52-7.596c0-0.72,0.18-2.027,0.54-3.924
		c0.36-1.896,1.5-3.899,3.42-6.011c1.919-2.111,4.02-3.395,6.3-3.852c2.279-0.456,4.308-0.684,6.084-0.684
		c0.767,0,1.368,0.024,1.8,0.072c0.432,0.048,1.548,0.252,3.348,0.612c1.8,0.36,3.719,1.404,5.76,3.132
		C258.141,97.704,259.568,99.84,260.385,102.383z"/>
	<path fill="#F1F2F2" d="M350.751,98.711h-15.336v47.664h-6.624V98.711h-15.336v-5.616h37.296V98.711z"/>
	<path fill="#F1F2F2" d="M411.663,146.375h-6.264v-53.28h6.264V146.375z"/>
	<path fill="#F1F2F2" d="M518.266,147.527h-1.295l-38.881-42.768v41.616h-5.975V91.799l1.5,0.01l38.531,42.813V93.096h6.119V147.527
		z"/>
	<path fill="#F1F2F2" d="M614.832,93.096l-17.496,29.374v23.906h-6.48v-23.904l-18.072-29.376l7.939-0.011l13.684,23.752
		l13.041-23.723L614.832,93.096z"/>
</g>
<line fill="none" stroke="#D1D3D4" stroke-miterlimit="10" x1="16" y1="72.333" x2="636.666" y2="72.333"/>
<g>
</g>
<g>
</g>
<g>
</g>
<g>
</g>
<g>
</g>
<g>
</g>
</svg>
