<?xml version="1.0" encoding="iso-8859-1"?>
<!-- Generator: Adobe Illustrator 16.0.0, SVG Export Plug-In . SVG Version: 6.00 Build 0)  -->
<!DOCTYPE svg PUBLIC "-//W3C//DTD SVG 1.1//EN" "http://www.w3.org/Graphics/SVG/1.1/DTD/svg11.dtd">
<svg version="1.1" id="Layer_1" xmlns="http://www.w3.org/2000/svg" xmlns:xlink="http://www.w3.org/1999/xlink" x="0px" y="0px"
	 width="152.78px" height="150.96px" viewBox="0 0 152.78 150.96" style="enable-background:new 0 0 152.78 150.96;"
	 xml:space="preserve">
<g>
	<g>
		<path d="M62.64,0.52c4.26-1,9.07-0.69,12.63,2.1c9.76,7.18,15.85,17.99,21.79,28.29
			c0.92,2.25,3.71,2.06,5.71,2.46c8.04,0.96,15.83,3.34,23.38,6.22c3.76-6.26,7.55-12.55,10.5-19.25c1.43-3.17,2.26-6.61,3.96-9.67
			c0.85,4.84-1.39,9.32-2.95,13.75c-2.16,5.91-5.26,11.42-7.75,17.19c5.54,2.98,10.91,6.68,14.54,11.92
			c1.76,2.71,2.97,6.59,0.69,9.37c-2.47,2.94-6.66,3.11-10.16,3.82c7.17,4.82,14.66,10.56,17.43,19.11
			c1.77,5.92-3.11,11.2-8.28,13.2c-11.71,4.86-24.69,4.49-37.13,4.21c-5.1,6.67-10.54,13.19-17.3,18.25
			c-1.1,0.99-3.28,2.11-2.08,3.86c4.69,9.25,10.81,17.7,17.48,25.61c-4.08-1.19-6.7-4.72-9.39-7.75
			c-4.61-5.33-8.42-11.26-12.48-16.99c-6.12,3.51-12.83,7.01-20.14,6.26c-3.01,0.18-6.02-1.94-6.62-4.92
			c-0.48-3.21,0.96-6.23,1.74-9.26c-7.89,3.7-16.62,6.98-25.44,4.86c-4.42-1.32-7.09-5.82-7.15-10.28
			c-0.13-5.75,1.73-11.33,3.87-16.6c3.17-7.12,6.85-14.03,11.09-20.57c-3.75-8.79-6.78-17.96-7.75-27.51
			c-4.92-0.52-9.88-0.91-14.79-0.08C11.95,48.2,5.95,49.16,0,50.38c3.72-3.67,9.29-3.71,14.1-4.73c5.9-0.64,11.81-1.49,17.76-1.31
			c1.27-7.19,0.53-15.28,5.29-21.38c1.85-2.92,5.75-3.23,8.74-2.19c2.45,1.68,4.25,4.09,6.2,6.29C52.37,17.52,54.04,6.23,62.64,0.52
			z M67.23,21.92c-2.78,4.83-3.73,10.48-3.91,15.99c8.4-4.2,17.77-6.08,27.14-5.55c-3.86-6.57-8.72-13.64-16.39-15.94
			C71.08,17.06,68.8,19.42,67.23,21.92z M45.56,30.22c-4.22,3.02-4.38,8.6-5.16,13.25c4.08,0.65,8.22,0.66,12.34,0.88
			c-0.57-4.46,0.76-9.95-2.78-13.44C48.9,29.62,47,29.91,45.56,30.22z M63.25,42.24c0.36,17.49,4.16,34.9,10.26,51.27
			c-1.92,1-3.85,2.01-5.75,3.05c-5.95-12.82-9.82-26.54-12.74-40.35c-0.3-1.37-0.88-2.63-1.73-3.77c-2.86,4.72-4.34,10.07-5.4,15.45
			c-1.13-6.44,1.44-12.55,3.98-18.3c-3.27-0.33-6.51-0.88-9.79-1.09c-0.36,0.29-1.07,0.89-1.42,1.19c1.07,11.5,4.35,22.8,9.56,33.1
			c3.11,6.21,7.64,11.71,13.2,15.87c1.27,0.7,2.8,2.42,4.3,1.18c14.58-8.94,27.09-20.85,38.52-33.5c1.7,1.07,3.53,2.03,4.88,3.56
			c-0.32,0.93-0.79,1.77-1.4,2.53c-6.69,8.58-14.25,16.42-22.13,23.9c-2.74,2.63-5.84,4.9-8.14,7.96c5.84,0.39,11.38-1.65,16.87-3.3
			c-4.96,4.24-11.64,5.16-17.93,5.53c1.48,3.39,3.03,6.75,4.46,10.16c6.66-3.74,12.29-9.08,17.39-14.7
			c8.17-9.24,15.93-20.5,15.44-33.39c-15.58-8.2-32.56-13.65-49.86-16.8c0.2-2.1,0.45-4.18,0.63-6.28
			c11.57,1.14,22.96,3.69,34.11,6.94c3.93,1.09,7.71,2.68,11.73,3.4c-2.02-4.44-5.74-7.69-8.53-11.6
			c4.69,2.03,7.57,6.38,10.73,10.14c0.31,0.02,0.93,0.06,1.24,0.08c2.17-2.44,3.83-5.28,5.75-7.91c-6.71-4.04-14.41-6.01-22-7.64
			C87.47,36.31,74.27,36.1,63.25,42.24z M125.65,48.84c-2.1,3.36-4.08,6.79-6.18,10.14c3.21,1.45,6.3,3.21,9.68,4.25
			c2.75,0.73,6.9-1.07,6.33-4.38C133.8,54.32,129.88,50.97,125.65,48.84z M119.62,70.97c-0.5,4.85-1.03,9.77-2.79,14.36
			c-1.5,4.16-3.78,7.99-5.55,12.04c6.04-0.41,12.29-0.93,17.84-3.52c2.66-1.19,5.25-3.89,4.37-7.04
			C131.66,79.64,125.44,74.91,119.62,70.97z M43.56,82.55c-2.6,5.78-5.76,11.68-5.9,18.14c-0.29,3.94,3.82,6.68,7.39,6.7
			c5.85,0.51,11.38-1.94,16.67-4.09c0-0.28,0.01-0.85,0.01-1.13c-3.12-2.52-6.57-4.69-9.23-7.74C49,90.87,46.82,86.3,43.56,82.55z
			 M62.64,118.8c0.44,1.7,1.67,3.77,3.69,3.63c4.53,0.72,8.81-1.11,12.63-3.33c-1.88-3.52-3.84-7.01-5.8-10.49
			C69.37,111.61,63.69,113.49,62.64,118.8z"/>
	</g>
</g>
</svg>
