<?xml version="1.0" encoding="iso-8859-1"?>
<!-- Generator: Adobe Illustrator 16.0.0, SVG Export Plug-In . SVG Version: 6.00 Build 0)  -->
<!DOCTYPE svg PUBLIC "-//W3C//DTD SVG 1.1//EN" "http://www.w3.org/Graphics/SVG/1.1/DTD/svg11.dtd">
<svg version="1.1" id="Layer_1" xmlns="http://www.w3.org/2000/svg" xmlns:xlink="http://www.w3.org/1999/xlink" x="0px" y="0px"
	 width="380.783px" height="298.11px" viewBox="0 0 380.783 298.11" style="enable-background:new 0 0 380.783 298.11;"
	 xml:space="preserve">
<g>
	<path d="M143.113,0c17.22,4.38,34.25,9.49,51.4,14.16c18.96,5.49,38.54,9.68,56.16,18.9c16.85,8.49,32.12,21.44,40.27,38.75
		c8.78,17.99,9.03,38.75,6.35,58.2c-1.95,12.35-5.76,25.2-14.78,34.31c-6.97,7.18-17.32,10.36-27.17,9.58
		c-9.15-0.69-18.16-3.39-26.31-7.58c-0.06-34.03,0.02-68.07-0.04-102.1c0.07-8.07-6.68-15.49-14.59-16.55
		c-3.62-0.6-7.31,1.48-8.84,4.77c-2.31,4.92-1.49,10.52-1.65,15.78c-0.12,76.63-0.05,153.26-0.31,229.89
		c-18.75-6.19-37.33-12.86-56.06-19.1c-1.77-0.7-4.75-1.12-4.09-3.74C143.223,183.52,143.053,91.76,143.113,0z"/>
	<path d="M112.043,174.91c6.15-2.18,12.25-4.53,18.57-6.17c0.13,12.1,0.27,24.21-0.07,36.31c-22.07,8.4-44.17,16.76-66.27,25.09
		c-2.74,1.15-6.53,2.62-6.72,6.09c0.68,4.06,5.41,5.24,8.86,5.88c9.63,1.32,19.75,1.45,29.01-1.89c11.52-3.68,22.79-8.1,34.19-12.15
		c0.03,10.92,0.48,21.88-0.25,32.77c-19.69,4.07-40.15,6.44-60.09,2.73c-16.6-2.98-33.41-5.82-49.15-12.11
		c-6.98-3.02-14.37-6.8-18.24-13.68c-3.11-5.42-2.26-12.58,1.75-17.3c4.72-5.66,11.58-8.82,18.07-11.97
		c5.07-2.31,10.06-4.81,15.31-6.7C62.033,192.86,87.033,183.89,112.043,174.91z"/>
	<path d="M266.513,184.62c21.9-2.82,44.09-0.28,65.61,4.1c13.04,2.89,26.36,6.55,37.37,14.41c5.55,4.09,10.62,9.98,11.29,17.09
		c-0.42,6.21-5.29,10.88-9.93,14.46c-7.84,5.82-16.9,9.74-26.06,12.97c-43.02,15.42-85.99,30.98-129.03,46.33
		c0.02-12.1-0.04-24.19,0.15-36.29c32.48-11.87,64.91-23.88,97.47-35.52c3.72-1.67,7.77-3.37,10.28-6.74
		c1.34-1.71,0.53-4.18-1.29-5.16c-4.14-2.53-9.2-2.81-13.93-3c-7.72-0.06-15.6,0.42-22.94,3c-12.56,4.14-25.3,7.72-37.66,12.44
		c-10.69,3.77-21.21,8-31.97,11.51c0.01-12.45-0.2-24.9,0.1-37.34C231.973,189.98,249.303,186.78,266.513,184.62z"/>
</g>
</svg>
