<?xml version="1.0" encoding="iso-8859-1"?>
<!-- Generator: Adobe Illustrator 16.0.0, SVG Export Plug-In . SVG Version: 6.00 Build 0)  -->
<!DOCTYPE svg PUBLIC "-//W3C//DTD SVG 1.1//EN" "http://www.w3.org/Graphics/SVG/1.1/DTD/svg11.dtd">
<svg version="1.1" id="Layer_1" xmlns="http://www.w3.org/2000/svg" xmlns:xlink="http://www.w3.org/1999/xlink" x="0px" y="0px"
	 width="309.927px" height="584.93px" viewBox="0 0 309.927 584.93" style="enable-background:new 0 0 309.927 584.93;"
	 xml:space="preserve">
<g>
	<path d="M31.769,3.81c8.28-3.23,17.6-4.92,26.38-2.85c5.5,0.79,10.64,3.03,15.66,5.32
		c3.02,1.63,5.94,3.44,9.01,4.98c1.25,0.9,2.54,1.74,3.83,2.58c1.39,0.81,2.77,1.65,4.18,2.44c1.88,1.25,3.85,2.37,5.81,3.49
		c2.86,1.72,6.28,2.58,8.68,4.98c-0.21,29.42,0,58.84-0.1,88.26c0.27,5.63,1.35,11.23,3.21,16.55
		c4.09,10.47,11.53,19.54,21.24,25.27c2,0.98,4,1.98,5.99,3.01c3.07,1.43,6.45,1.93,9.6,3.12c3.36-0.02,6.64,0.91,9.99,0.96
		c5.58-0.48,11.13-1.24,16.46-3.04c3.41-1.56,6.86-3.02,10.04-5.04c6.48-4.57,12.29-10.32,16.32-17.2c0.98-2.05,1.94-4.11,3.02-6.12
		c1.42-4.39,2.88-8.85,3.17-13.48c-0.03-30.93,0.02-61.85-0.02-92.77c3.9-1.82,7.74-3.76,11.45-5.95c3.32-2,6.69-3.92,9.93-6.05
		c1.7-0.94,3.37-1.94,5.01-2.99c3.25-1.86,6.63-3.45,10-5.06c5.56-2.44,11.56-3.53,17.56-4.22c11.97,0.01,24.1,3.94,33.29,11.77
		c4.05,3.91,8.2,7.81,10.99,12.77c7.89,12.73,9.73,28.91,4.51,42.98c-1.3,3.1-2.63,6.19-4.5,9c-5.44,8.81-14.18,14.64-22.67,20.21
		c-18.7,11.82-35.11,27.24-47.39,45.69c-1.51,2.38-3.11,4.7-4.46,7.17c-1.99,3.2-3.72,6.56-5.52,9.87
		c-1.78,3.63-3.35,7.35-5.04,11.02c-0.6,1.68-1.2,3.37-1.93,5c-8.16,21.23-10.55,44.03-12.44,66.48c-0.68,3.18-1.18,6.41-2.01,9.57
		c-3.83,12.99-12.91,24.37-25.23,30.2c-12.29,5.31-26.47,5.73-39.03,1.07c-2.36-1.13-4.81-2.08-7.04-3.47
		c-6.98-4.32-12.98-10.51-16.66-17.88c-0.52-0.93-1.05-1.86-1.58-2.78c-0.62-1.73-1.24-3.46-2.04-5.11
		c-1.93-6.68-3.27-13.59-3.21-20.56c-1.27-6.64-1.38-13.42-2.58-20.07c-1.66-13.13-5-26.04-9.62-38.43
		c-0.89-1.95-1.52-4.01-2.5-5.91c-2.49-6.24-5.61-12.19-9-17.98c-4.85-8.49-10.78-16.3-17-23.81c-7.52-7.5-14.73-15.36-23.37-21.6
		c-4.58-3.61-9.52-6.72-14.37-9.96c-9.41-5.95-18.25-13.57-23.3-23.67c-6.97-15.25-5.84-34,3.5-48.02
		c3.55-5.61,8.08-10.62,13.64-14.29c1.01-0.66,2.01-1.31,3.01-1.98C26.969,6.04,29.289,4.75,31.769,3.81z"/>
	<path d="M136.709,30.81c9.61-6.51,22.67-7.38,32.98-2.01c10.69,5.3,18.33,17.09,17.49,29.18
		c-0.04,17.66-0.05,35.33-0.01,53c1.2,12.78-6.82,25.38-18.27,30.79c-10.28,4.8-22.91,3.95-32.26-2.56
		c-9.06-5.9-14.21-16.51-14.41-27.21c0.02-17.68,0.04-35.35-0.01-53.03C122.249,47.97,127.239,36.8,136.709,30.81z"/>
	<path d="M118.639,318.81c16.75-6.14,34.94-7.13,52.59-5.79c9.07,0.98,18.07,3.01,26.62,6.24
		c2.34,0.98,4.68,1.96,6.98,3.04c2.66,1.46,5.42,2.76,7.92,4.5c1.02,0.64,2.02,1.3,3.02,1.97c7.73,5.31,14.43,12.03,19.69,19.79
		c0.85,1.26,1.68,2.54,2.52,3.81c2.32,3.86,4.3,7.88,6,12.05c6.87,17.28,7.93,36.5,4.04,54.61c-1.68,6.74-3.96,13.33-7.05,19.57
		c-1.32,2.34-2.62,4.69-4,7c-9.5,14.87-23.09,26.45-37.31,36.64c-3.6,2.52-7.25,4.98-10.86,7.49c-1.02,0.63-2.02,1.29-3.02,1.97
		c-1.02,0.64-2.01,1.32-2.99,2.02c-4.42,2.72-8.67,5.72-13.04,8.52c-8.72,6.3-17.72,12.36-25.34,19.99
		c-6.33,5.78-12.42,12.1-16.4,19.77c30.08,0.1,60.16,0.01,90.24,0.04c11.44,0.15,22.9-0.3,34.33,0.24
		c-0.43,10.24-0.07,20.5-0.18,30.76c0.24,3.9-0.46,7.89,0.42,11.74c-64.55,0.28-129.1,0.01-193.66,0.15
		c1.17-12.04,2.97-24.1,7.32-35.46c0.71-1.66,1.35-3.34,1.99-5.02c1.89-4.09,3.81-8.15,6.04-12.06c1.62-2.69,3.23-5.38,4.96-8
		c5.44-8.14,12.05-15.32,18.6-22.55c9.54-8.91,19.3-17.52,29.8-25.3c14.68-11.27,30.19-21.52,44.13-33.72
		c6.33-6.2,12.64-12.49,17.07-20.25c0.79-1.73,1.7-3.4,2.46-5.14c4.98-10.91,4.6-23.43,1.56-34.81c-0.81-1.68-1.41-3.43-2.03-5.18
		c-0.25-0.49-0.77-1.48-1.03-1.97c-3.2-6.04-8.08-11.11-14.2-14.23c-0.51-0.26-1.54-0.78-2.06-1.04c-5.64-1.99-11.59-3.45-17.6-3.3
		c-7.49,0.58-14.99,2.39-21.47,6.31c-5.19,3.4-9.68,7.93-12.77,13.34c-1.31,2.22-2.43,4.54-3.51,6.88
		c-3.52,9.02-5.12,18.72-5.28,28.37c-16.6-0.31-33.21-0.17-49.81-0.04c0.02-16.06,2.32-32.3,8.13-47.35c1-2.33,1.96-4.67,3.05-6.94
		c6.38-12.7,16.06-23.69,28.16-31.19c3.88-2.23,7.79-4.39,11.95-6.06C115.949,319.71,117.279,319.23,118.639,318.81z"/>
</g>
</svg>
