<?xml version="1.0" encoding="iso-8859-1"?>
<!-- Generator: Adobe Illustrator 16.0.0, SVG Export Plug-In . SVG Version: 6.00 Build 0)  -->
<!DOCTYPE svg PUBLIC "-//W3C//DTD SVG 1.1//EN" "http://www.w3.org/Graphics/SVG/1.1/DTD/svg11.dtd">
<svg version="1.1" id="Layer_1" xmlns="http://www.w3.org/2000/svg" xmlns:xlink="http://www.w3.org/1999/xlink" x="0px" y="0px"
	 width="977.686px" height="978.236px" viewBox="0 0 977.686 978.236" style="enable-background:new 0 0 977.686 978.236;"
	 xml:space="preserve">
<g>
	<path d="M462.694,0.561c32.03-1.19,64.18-0.61,96.06,2.93c22.05,2.36,43.62,7.83,64.89,13.99
		c41.32,12.45,82.29,27.82,118.72,51.32c-13.9-0.51-27.81-1.94-41.72-1.07c-20.46,1.15-40.67,5.09-60.46,10.27
		c-24.67,6.52-48.75,15.12-72.28,24.95c-25.64,10.5-50.01,23.78-75.55,34.49c-1.73,0.53-3.56,1.89-5.38,0.95
		c-20.72-9.36-40.56-20.59-61.41-29.69c-31.94-13.92-64.8-25.91-98.56-34.61c-23.21-6.2-47.46-7.46-71.36-6.21
		c-3.93,0.04-8.01,0.52-11.82-0.69c-1.27-1.58,1-2.44,1.96-3.37c5.54-3.71,11.64-6.48,17.58-9.48
		c19.12-9.25,38.33-18.37,58.27-25.72c22.08-8.29,44.87-14.58,67.91-19.59C413.534,3.541,438.164,1.691,462.694,0.561z"/>
	<path d="M140.964,146.931c5.21-4.79,11.17-9.78,18.58-10.14c7.89-0.25,15.42,2.62,22.83,4.94
		c25.32,8.06,48.23,22.05,69.64,37.52c36.88,26.83,70,58.31,103.87,88.74c-15.42,18.9-30.96,37.72-45.68,57.17
		c-47.02,61.98-89.79,127.18-128.2,194.83c-19.02,33.72-36.95,68.1-52.35,103.65c-15.81,36.68-28.29,75.26-32.34,115.15
		c-0.97,11.09-1.37,22.42,0.97,33.37c0.91,4.62,3.52,8.81,3.65,13.6c-3.36-2.51-5.56-6.12-8.02-9.43
		c-21.33-30.62-40.24-63.08-54.38-97.66c-16.65-40.29-26.91-82.96-33.36-126c-2.83-20.26-5.9-40.59-6.17-61.08
		c-0.13-21.52,2.95-42.88,5.99-64.14c2.75-17.71,5.08-35.51,9.24-52.96c9.31-39.73,24.21-78.04,42.95-114.25
		C79.884,218.651,106.864,179.371,140.964,146.931z"/>
	<path d="M810.864,137.851c5.88-1.18,12.76-3.57,18.05,0.54c12.64,8.78,22.87,20.5,33.04,31.93
		c43.24,49.89,74.79,109.33,94.79,172.09c8,25.83,15.03,52.15,17.62,79.14c3.35,33.59,3.979,67.42,2.72,101.14
		c-0.79,17.66-1.97,35.37-5.04,52.8c-3.9,20.35-9.34,40.39-15.52,60.16c-6.66,20.91-14.06,41.66-23.41,61.54
		c-12.15,24.52-25.83,48.29-40.71,71.25c-3.93,5.49-7.33,11.6-12.55,15.99c0.09-3.73,0.82-7.38,1.61-11.01
		c3.4-14.39,2.43-29.35,0.73-43.9c-2.93-22.94-8.62-45.47-16.06-67.34c-9.08-26.16-20.63-51.38-32.84-76.2
		c-28.38-57.06-60.89-111.98-95.63-165.38c-19.79-30.28-40.41-60.03-62.1-88.98c-16.24-21.74-33.4-42.75-50.23-64.02
		c41.85-38.22,82.94-78.21,131.98-107.3C774.174,150.751,792.074,142.751,810.864,137.851z"/>
	<path d="M490.044,396.191c2.75-1.03,5.26,1.26,7.56,2.49c12.4,8.33,23.51,18.38,34.73,28.2
		c31.59,28.34,61.96,58.02,91.83,88.16c24.31,24.73,48.33,49.76,71.3,75.74c20.58,23.36,39.73,47.96,57.87,73.25
		c16.97,23.84,32.86,48.52,46.32,74.52c9.71,18.99,18.35,38.73,23.17,59.58c2.99,13.59,4.57,28.12,0.25,41.61
		c-2.86,9.21-9.7,16.4-16.47,22.96c-14.12,13.2-30.09,24.24-46.32,34.65c-29.96,18.88-61.52,35.27-94.33,48.61
		c-44.01,17.95-91.25,26.67-138.46,30.54c-34.87,2.69-70.06,2.49-104.75-2.29c-71.99-9.89-141.49-36.61-202.12-76.57
		c-15.08-10.02-30.26-20.08-43.67-32.31c-9.52-8.71-17.85-19.62-20.07-32.63c-3.55-20.62,1.93-41.46,8.96-60.75
		c12.2-32.36,30.14-62.18,49.39-90.77c21.11-31.05,44.41-60.56,68.78-89.1c48.56-56.59,101.44-109.42,157.32-158.77
		c13.1-11.31,26.2-22.72,40.46-32.57C484.424,399.031,487.064,397.241,490.044,396.191z"/>
</g>
</svg>
