<?xml version="1.0" encoding="UTF-8" standalone="no"?>
<svg
   xmlns:dc="http://purl.org/dc/elements/1.1/"
   xmlns:cc="http://creativecommons.org/ns#"
   xmlns:rdf="http://www.w3.org/1999/02/22-rdf-syntax-ns#"
   xmlns:svg="http://www.w3.org/2000/svg"
   xmlns="http://www.w3.org/2000/svg"
   xmlns:sodipodi="http://sodipodi.sourceforge.net/DTD/sodipodi-0.dtd"
   xmlns:inkscape="http://www.inkscape.org/namespaces/inkscape"
   viewBox="0 0 580.45001 539.125"
   height="539.125"
   width="580.45001"
   xml:space="preserve"
   version="1.1"
   id="svg2"
   inkscape:version="0.48.5 r10040"
   sodipodi:docname="destiny-icon.svg"><metadata
     id="metadata14"><rdf:RDF><cc:Work
         rdf:about=""><dc:format>image/svg+xml</dc:format><dc:type
           rdf:resource="http://purl.org/dc/dcmitype/StillImage" /></cc:Work></rdf:RDF></metadata><defs
     id="defs12" /><sodipodi:namedview
     pagecolor="#ffffff"
     bordercolor="#666666"
     borderopacity="1"
     objecttolerance="10"
     gridtolerance="10"
     guidetolerance="10"
     inkscape:pageopacity="0"
     inkscape:pageshadow="2"
     inkscape:window-width="1600"
     inkscape:window-height="849"
     id="namedview10"
     showgrid="false"
     inkscape:zoom="0.85795502"
     inkscape:cx="314.20876"
     inkscape:cy="306.3124"
     inkscape:window-x="0"
     inkscape:window-y="0"
     inkscape:window-maximized="1"
     inkscape:current-layer="g6" /><g
     transform="matrix(1.25,0,0,-1.25,0,539.125)"
     id="g4"><g
       transform="scale(0.1,0.1)"
       id="g6"><path
         d="m1583.15 3948.86c4.09-336.88 0-661.13 0-1028.2 0-109-5.45-218.27 0-320.2 26.41-493.42 491-854.21 992.12-671.94 242.7 88.26 441.08 299.55 478.03 590.76 23.26 183.18 4.51 461.46 4.51 708.03 0 164.87 0 350.95 0 536.66 0 51.32-5.18 141.96 0 175.86 0 0 134.17 73.67 162.36 90.2 163.21 95.71 294.31 201.77 491.55 257.05 323.83 90.76 580.52-74.39 726.05-225.48 160.45-166.56 267.18-455.88 166.86-753.13C4520.11 3058.03 4315.6 2943.61 4113.09 2803.4 3721.46 2532.27 3420.71 2167.31 3233.69 1685 3143.94 1453.52 3091.64 1148.36 3062.33 868.75 3045.06 703.98 3036.5 567.059 2985.66 444.832 2893.74 223.859 2706.21 42.4414 2426.46 7.40234 1951.75-52.0508 1662.77 254.082 1601.19 661.309 1577.92 815.199 1571.98 967.762 1551.58 1112.27 1450.89 1825.89 1113.59 2345.4 649.648 2708.7 370.57 2927.23-11.3242 3073.2 0.257813 3556.52 3.875 3707.57 52.5352 3841.2 112.996 3939.83c119.598 195.12 327.586 367.65 640.379 369.8 369.905 2.54 549.735-223.9 829.775-360.77M2300.19 3930.82c243.98 15.59 452.82-159.49 500.57-378.82 27.23-125.01 9.03-363.83 9.03-496.06 0-157.72 13.01-354.7-4.52-500.57-19.52-162.43-108.83-281.76-207.44-347.26-300.64-199.65-728.73-21.61-766.64 365.29-17.58 179.45 0 353.34 0 532.15 0 173.93-16.88 381.33 27.04 505.09 57.55 162.01 216.85 305.79 441.96 320.18"
         fill="#000"
         id="path8"
         style="fill:#ffffff;fill-opacity:1" /></g></g></svg>