<?xml version="1.0" encoding="UTF-8" standalone="no"?>
<svg
   xmlns:dc="http://purl.org/dc/elements/1.1/"
   xmlns:cc="http://creativecommons.org/ns#"
   xmlns:rdf="http://www.w3.org/1999/02/22-rdf-syntax-ns#"
   xmlns:svg="http://www.w3.org/2000/svg"
   xmlns="http://www.w3.org/2000/svg"
   xmlns:sodipodi="http://sodipodi.sourceforge.net/DTD/sodipodi-0.dtd"
   xmlns:inkscape="http://www.inkscape.org/namespaces/inkscape"
   version="1.0"
   width="370.30511"
   height="369.75192"
   viewBox="0 0 296.24409 295.80154"
   preserveAspectRatio="xMidYMid meet"
   id="svg2"
   inkscape:version="0.48.5 r10040"
   sodipodi:docname="question-icon.svg">
  <defs
     id="defs12" />
  <sodipodi:namedview
     pagecolor="#ffffff"
     bordercolor="#666666"
     borderopacity="1"
     objecttolerance="10"
     gridtolerance="10"
     guidetolerance="10"
     inkscape:pageopacity="0"
     inkscape:pageshadow="2"
     inkscape:window-width="1600"
     inkscape:window-height="849"
     id="namedview10"
     showgrid="false"
     fit-margin-top="0"
     fit-margin-left="0"
     fit-margin-right="0"
     fit-margin-bottom="0"
     inkscape:zoom="1.1004349"
     inkscape:cx="197.14005"
     inkscape:cy="175.76575"
     inkscape:window-x="0"
     inkscape:window-y="0"
     inkscape:window-maximized="1"
     inkscape:current-layer="g6" />
  <metadata
     id="metadata4">
Created by potrace 1.12, written by Peter Selinger 2001-2015
<rdf:RDF>
  <cc:Work
     rdf:about="">
    <dc:format>image/svg+xml</dc:format>
    <dc:type
       rdf:resource="http://purl.org/dc/dcmitype/StillImage" />
  </cc:Work>
</rdf:RDF>
</metadata>
  <g
     transform="matrix(0.1,0,0,-0.1,-107.86667,320.76053)"
     id="g6"
     style="fill:#000000;stroke:none">
    <path
       d="m 2385,3203 c -487,-59 -918,-358 -1145,-795 -66,-127 -131,-324 -145,-443 -3,-27 -8,-66 -11,-85 -11,-75 -4,-317 12,-395 2,-11 7,-33 9,-50 8,-42 44,-176 54,-200 61,-143 97,-215 143,-290 172,-276 435,-491 743,-606 83,-32 220,-66 291,-75 23,-3 53,-7 65,-9 54,-11 306,-4 394,10 510,82 940,425 1139,906 73,176 105,342 107,549 1,96 -5,186 -17,250 -3,14 -7,39 -9,55 -15,103 -102,328 -177,460 -34,60 -151,213 -206,271 -222,231 -529,392 -842,439 -77,12 -331,17 -405,8 z m 340,-496 c 123,-30 188,-56 275,-112 122,-78 223,-199 271,-324 34,-86 33,-254 -2,-351 -33,-94 -130,-199 -247,-267 -142,-82 -198,-146 -217,-245 -9,-45 -26,-48 -245,-48 -251,0 -245,-3 -246,102 0,118 33,199 119,288 65,67 88,85 179,136 160,89 185,114 192,197 7,74 -47,138 -147,171 -58,19 -162,14 -215,-11 -38,-18 -108,-83 -177,-165 -55,-65 -79,-69 -143,-21 -28,21 -63,47 -78,58 -107,79 -174,138 -174,154 0,27 75,136 144,209 102,108 264,199 384,218 21,3 53,9 72,13 37,8 221,6 255,-2 z m 65,-1495 c 17,-20 19,-43 18,-210 0,-185 -8,-246 -31,-255 -18,-7 -365,-8 -409,-1 -27,4 -39,12 -47,32 -14,36 -12,412 3,431 19,24 44,27 247,26 197,0 201,-1 219,-23 z"
       id="path8"
       inkscape:connector-curvature="0"
       style="fill:#ffffff;fill-opacity:1" />
  </g>
</svg>
